<svg xmlns="http://www.w3.org/2000/svg" viewBox="0 0 576 236.93"><defs><style>.cls-1{fill:#fff;}.cls-2{fill:#ec008c;}.cls-3{fill:#ea088b;}.cls-4{fill:#231f20;}</style></defs><g id="Rev"><polygon class="cls-1" points="187.08 28.21 82.85 28.21 30.74 118.47 82.85 208.73 187.08 208.73 239.19 118.47 187.08 28.21"/><path class="cls-1" d="M277,132.71H267.7l-2.27,6.48h-4.32l9.35-24.78h3.79l9.34,24.78h-4.31Zm-8.18-3.26h7.05l-3.05-8.78-.35-1.63h-.21l-.36,1.63Z"/><path class="cls-1" d="M299.39,122.87l-1.27-2.23-.21.07v18.48h-4V114.41h3.68L309.7,131l1.2,2.09.21-.07V114.41h4v24.78H311.4Z"/><path class="cls-1" d="M333.14,122.87l-1.27-2.23-.22.07v18.48h-4V114.41h3.68L343.44,131l1.21,2.09.21-.07V114.41h4v24.78h-3.69Z"/><path class="cls-1" d="M361.58,114.41h4v24.78h-4Z"/><path class="cls-1" d="M408.78,114.41h4v21.45h10.44v3.33H408.78Z"/><path class="cls-1" d="M438.24,125.88l.29,1h.21l.32-1L445,114.41h4.39l-8.78,16v8.75h-4v-8.82l-8.74-16h4.39Z"/><path class="cls-1" d="M468.63,117.73v21.46h-4V117.73h-7v-3.32h17.84v3.32Z"/><path class="cls-1" d="M486.09,114.41h4v24.78h-4Z"/><path class="cls-1" d="M514,136.22a13.16,13.16,0,0,0,5.14-.82l.85,3.15a15.31,15.31,0,0,1-6,1,12.75,12.75,0,0,1,0-25.49,14.64,14.64,0,0,1,6,1l-.85,3.11a15,15,0,0,0-5.14-.81c-4.81,0-8.5,4.32-8.5,9.42C505.49,132.21,509.18,136.22,514,136.22Z"/><path class="cls-1" d="M530.32,134.8a17.47,17.47,0,0,0,6.34,1.27c2.3,0,4.49-1.09,4.49-3.68,0-2-1.27-3-4.81-4.18-3.76-1.27-6.84-3.36-6.84-7,0-4.82,4-7.12,8.25-7.12a17.27,17.27,0,0,1,6.94,1.52l-.85,3.26a15.42,15.42,0,0,0-6.09-1.31c-2.16,0-4.14,1.17-4.14,3.51,0,1.77,1.38,2.93,4.75,4.1,3.93,1.42,6.9,3.37,6.9,7.08,0,5.07-4.18,7.33-8.6,7.33A19.1,19.1,0,0,1,529.5,138Z"/><path class="cls-2" d="M412.2,151.58h4.09c2.77,0,4.29,1.46,4.29,3.51s-1.52,3.52-4.29,3.52h-1.85v3.85H412.2Zm2.24,1.84v3.35h1.85c1.39,0,2-.67,2-1.68s-.66-1.67-2-1.67Z"/><path class="cls-2" d="M437.85,151.43a5.58,5.58,0,0,1,5.58,5.59,5.57,5.57,0,1,1-5.58-5.59Zm0,9.35c2,0,3.34-1.57,3.34-3.76s-1.3-3.76-3.34-3.76-3.32,1.68-3.32,3.76S435.83,160.78,437.85,160.78Z"/><path class="cls-2" d="M455.76,151.58h3.31c3.56,0,5.81,2.35,5.81,5.44s-2.25,5.44-5.81,5.44h-3.31Zm2.24,1.84v7.21h1.07a3.38,3.38,0,0,0,3.58-3.61,3.42,3.42,0,0,0-3.58-3.6Z"/><path class="cls-2" d="M482.34,160.78a5.42,5.42,0,0,0,2.19-.35l.44,1.75a6.62,6.62,0,0,1-2.63.44,5.6,5.6,0,1,1,0-11.19,6.45,6.45,0,0,1,2.63.45l-.44,1.74a6.43,6.43,0,0,0-2.19-.36,3.57,3.57,0,0,0-3.42,3.76A3.51,3.51,0,0,0,482.34,160.78Z"/><path class="cls-2" d="M503.06,160.05h-3.87l-.82,2.41H496l4-10.88h2.17l4,10.88h-2.37Zm-3.26-1.77h2.65l-1-3-.27-1.12h-.09l-.23,1.1Z"/><path class="cls-2" d="M518.22,160.16a8,8,0,0,0,2.65.5c.86,0,1.67-.36,1.67-1.23s-.5-1.09-1.95-1.61c-1.69-.66-2.84-1.61-2.84-3.14,0-2.2,1.87-3.25,3.87-3.25a7.72,7.72,0,0,1,3,.66l-.44,1.81a7.31,7.31,0,0,0-2.61-.52c-.79,0-1.51.41-1.51,1.17s.55,1.1,1.88,1.6c1.78.69,2.91,1.63,2.91,3.13,0,2.3-2,3.34-4,3.34a8.06,8.06,0,0,1-3.07-.67Z"/><path class="cls-2" d="M541.77,153.42v9h-2.24v-9h-3v-1.84h8.2v1.84Z"/><path class="cls-1" d="M398.82,114.38v4H378.24v-4Z"/><path class="cls-2" d="M398.82,124.17v4H378.24v-4Z"/><path class="cls-2" d="M398.82,135.29v4H378.24v-4Z"/><path class="cls-2" d="M129.65,153.14l-.14.12a2.06,2.06,0,0,1-.37.29l-.42.31-.43.29a.41.41,0,0,0-.12.11l.06,0,1.19-.79c.07,0,.11-.12.18-.16a1,1,0,0,1,.24-.08.08.08,0,0,0,0,0,1.62,1.62,0,0,1-.18.19c-.28.22-.57.42-.86.63l-.11.08,0,0,1.38-.93h0l-.12.13a12.49,12.49,0,0,1-1.76,1.3c-.51.3-1,.61-1.51.95l0,0a6.47,6.47,0,0,0,1.43-.78c.45-.31.88-.64,1.32-.95a15.44,15.44,0,0,1-2,1.45,13.07,13.07,0,0,0,2.24-1.5l-.07.07a9.57,9.57,0,0,1-2.34,1.66s-.08.07-.13.1a1.43,1.43,0,0,1-.27.15c-.33.12-.67.22-1,.35l-1.12.44c-.11.05-.25.06-.32.21a12.53,12.53,0,0,0,4.14-1.92l-.19.17a11,11,0,0,1-3.81,2.09,11.86,11.86,0,0,1-2.49.52,10.49,10.49,0,0,1-1.77.08,8,8,0,0,1-2.92-.68,10.25,10.25,0,0,1-2.37-1.45,3.07,3.07,0,0,1-.41-.47c-.06-.06-.12-.16,0-.24s.16,0,.24,0l.09,0-.23-.23a1.6,1.6,0,0,1-.39-.6l-.21-.5s-.08-.11,0-.17a.17.17,0,0,0,0-.05,1,1,0,0,1,0-.1c-.06-.13,0-.19.12-.19a.4.4,0,0,1,.11,0c.07,0,.12,0,.12-.1a.14.14,0,0,1,.19-.12l-.21-.25a.37.37,0,0,1-.13-.28.32.32,0,0,1,0-.09l-.06-.15c.1,0,.2,0,.21.13a.05.05,0,0,0,0,0l.6.56a.13.13,0,0,0,.09,0l-.48-.5-.2-.22a.12.12,0,0,1,0-.17s.09,0,.13,0l.24.14a1.18,1.18,0,0,1-.1-.19c0-.05,0-.1,0-.15s.12,0,.16,0a2.12,2.12,0,0,1,.43.28,6.45,6.45,0,0,1,.9.91,4.07,4.07,0,0,0,.52.58c.24.24.49.46.73.69a1.3,1.3,0,0,0,.2.15c.43.2.82.47,1.25.65a1.61,1.61,0,0,0,.49.07l.35.06,1.18.33H121a10.07,10.07,0,0,0,2.19-.25l.44-.11.13,0v0l-.45.13-.47.12-.48.09-.47.09c.31,0,.62,0,.93-.09a12.2,12.2,0,0,0,2.59-.68,11.25,11.25,0,0,0,2.87-1.61c.49-.38,1-.79,1.43-1.19l.16-.12s.07,0,.11,0l0,0a1.18,1.18,0,0,1-.13.18,12.12,12.12,0,0,1-3,2.25,12.37,12.37,0,0,1-2.34.92s-.13,0-.13.11a6.39,6.39,0,0,0,.81-.25c1-.44,2-.88,3-1.36a6,6,0,0,0,.89-.63c.19-.14.36-.3.54-.45l.05,0,0,0-.86.79c.11,0,.09.06,0,.16l.14-.1c.06,0,.1-.11.19-.06s.06,0,.08-.06l.38-.29h0m-.9.67h0l-1.84,1.08a.44.44,0,0,0,.2,0c.23-.13.46-.26.68-.41s.65-.42,1-.63m-11.76.37a0,0,0,0,0,0,0c-.27-.26-.54-.52-.82-.77l-.16-.1a0,0,0,0,1,0,0,6.44,6.44,0,0,0,1,.87m-1.54-1-.53-.57,0,0c.17.19.28.45.56.54m.24.36h0a.8.8,0,0,0,.13.19l.58.48,0,0h0Z"/><path class="cls-2" d="M123.87,155.14a16.76,16.76,0,0,0,2.22-.68,10.26,10.26,0,0,1-2.22.68"/><path class="cls-2" d="M129.64,153.13l.37-.3h0l-.36.31h0"/><path class="cls-2" d="M130,152.83c.1-.1.2-.2.31-.29l0,0-.33.27h0"/><path class="cls-2" d="M113.54,153.11l.12-.09a4.05,4.05,0,0,1,.35-.21c.12-.08.26-.15.39-.22l.39-.21.11-.08-.06,0-1.09.57a1.77,1.77,0,0,1-.17.12,1.16,1.16,0,0,1-.22.06s0,0,0,0a1.07,1.07,0,0,1,.16-.14l.79-.45.11-.06,0,0c-.43.22-.85.45-1.27.68h0l.12-.09a10.61,10.61,0,0,1,1.61-.94c.48-.23,1-.45,1.4-.7l0,0a7.1,7.1,0,0,0-1.33.57l-1.22.7a14.63,14.63,0,0,1,1.86-1.05,12.56,12.56,0,0,0-2.06,1.08l.06-.05a9.26,9.26,0,0,1,2.17-1.2l.11-.07a1.12,1.12,0,0,1,.25-.11c.31-.1.62-.17.93-.26l1-.34c.11,0,.24,0,.3-.15a14,14,0,0,0-3.84,1.42l.17-.12a11.65,11.65,0,0,1,3.54-1.53,14.82,14.82,0,0,1,2.32-.42,13.09,13.09,0,0,1,1.66-.08,9.83,9.83,0,0,1,2.77.42,11.75,11.75,0,0,1,2.26,1,2.55,2.55,0,0,1,.4.32c0,.05.11.11,0,.17s-.15,0-.22,0l-.09,0,.22.16a1.13,1.13,0,0,1,.38.41c.07.12.15.23.21.35s.08.08,0,.12,0,0,0,0l.05.07c.06.09,0,.13-.11.14h-.1c-.07,0-.12,0-.11.07s-.09.1-.18.09l.21.17a.26.26,0,0,1,.12.19.25.25,0,0,1,0,.07l.06.1c-.1,0-.19,0-.2-.09l0,0-.57-.38-.09,0,.47.34.19.15a.07.07,0,0,1,0,.12s-.08,0-.12,0l-.23-.09a.57.57,0,0,1,.1.13.37.37,0,0,1,0,.11h-.14a3.31,3.31,0,0,1-.42-.18,6.14,6.14,0,0,1-.86-.63,5.31,5.31,0,0,0-.51-.4c-.23-.16-.47-.31-.71-.46a.64.64,0,0,0-.18-.1c-.41-.13-.79-.31-1.2-.44a2.27,2.27,0,0,0-.46,0l-.33,0-1.12-.21h-.1a11.8,11.8,0,0,0-2.06.22l-.4.08-.13,0v0l.42-.1.44-.09.45-.07c.15,0,.3,0,.44-.08-.29,0-.58,0-.87.09a14.87,14.87,0,0,0-2.42.52,11.44,11.44,0,0,0-2.66,1.18c-.45.27-.88.57-1.32.85l-.14.1-.11,0,0,0a1.42,1.42,0,0,1,.12-.13,11.43,11.43,0,0,1,2.79-1.63,13.83,13.83,0,0,1,2.18-.68s.12,0,.12-.08a5.63,5.63,0,0,0-.76.19c-.93.32-1.86.65-2.77,1a6.07,6.07,0,0,0-.83.46l-.5.32,0,0,0,0,.79-.56c-.1,0-.09-.05,0-.11l-.13.06c-.06,0-.09.09-.18.05l-.08,0-.34.21h0m.83-.49h0l1.7-.79a.42.42,0,0,0-.19,0l-.63.29-.89.46m11-.47v0l.79.52.16.06h0a6.78,6.78,0,0,0-1-.59m1.47.68.51.38h0c-.16-.14-.26-.31-.53-.37m-.24-.25h0a1.42,1.42,0,0,0-.12-.13l-.56-.32,0,0h0l.72.47"/><path class="cls-2" d="M118.93,151.61a18,18,0,0,0-2.08.51,11.51,11.51,0,0,1,2.08-.51"/><path class="cls-2" d="M113.55,153.11l-.34.22h0l.34-.22h0"/><path class="cls-2" d="M113.21,153.33l-.29.21,0,0,.3-.19h0"/><path class="cls-3" d="M119.71,47.11c0,.54-.44.8-1,.81s-1.05-.24-1.06-.79.44-.8,1-.81S119.71,46.56,119.71,47.11Zm-1.75,0c0,.3.3.37.71.37s.7-.09.7-.39-.32-.37-.71-.37S118,46.82,118,47.13Z"/><path class="cls-3" d="M119.81,49.48c0,.54-.4.82-1,.86s-1.06-.18-1.09-.73.4-.82,1-.86S119.77,48.93,119.81,49.48Zm-1.75.11c0,.3.32.36.72.33s.7-.12.68-.42-.33-.36-.72-.33S118,49.29,118.06,49.59Z"/><path class="cls-3" d="M119.59,51.43l0-.35.34,0,.08.77-2,.19,0-.41Z"/><path class="cls-3" d="M119.77,53.1l0-.35.34,0,.1.77-2,.26-.06-.41Z"/><path class="cls-3" d="M120.59,55.19c.09.57-.34.92-1,1s-1.15-.08-1.24-.66.33-.92,1-1S120.49,54.61,120.59,55.19Zm-1.84.3c0,.32.37.35.8.28s.73-.2.68-.52-.4-.35-.81-.28S118.7,55.17,118.75,55.49Z"/><path class="cls-3" d="M121.06,57.69c.12.57-.3.93-.92,1.06s-1.15,0-1.27-.6.3-.93.92-1.06S120.94,57.12,121.06,57.69Zm-1.83.39c.07.31.39.33.82.24s.72-.24.65-.55-.41-.33-.82-.24S119.17,57.76,119.23,58.08Z"/><path class="cls-3" d="M121.64,60.16c.15.56-.25,1-.86,1.11s-1.15,0-1.3-.55.25-.94.86-1.1S121.49,59.6,121.64,60.16Zm-1.81.47c.08.31.41.32.83.21s.71-.28.63-.59-.43-.3-.83-.2S119.75,60.32,119.83,60.63Z"/><path class="cls-3" d="M121.81,62.24l-.11-.36.35-.11.24.79-2.07.64-.13-.43Z"/><path class="cls-3" d="M122.36,63.94l-.12-.36.34-.12.28.78-2,.71-.15-.42Z"/><path class="cls-3" d="M123.53,65.92c.22.54-.12,1-.71,1.21s-1.14.17-1.36-.37.13-1,.72-1.21S123.31,65.38,123.53,65.92Zm-1.73.7c.12.3.44.26.85.1s.66-.36.54-.66-.46-.25-.85-.1S121.68,66.32,121.8,66.62Z"/><path class="cls-3" d="M124.55,68.24c.25.53-.06,1-.64,1.25s-1.12.24-1.37-.29.06-1,.64-1.24S124.3,67.72,124.55,68.24Zm-1.68.81c.14.29.45.23.85,0s.64-.4.5-.69-.47-.22-.85,0S122.73,68.76,122.87,69.05Z"/><path class="cls-3" d="M125.86,70.47c.31.54,0,1-.58,1.38s-1.18.33-1.48-.21,0-1,.59-1.37S125.56,69.93,125.86,70.47Zm-1.72,1c.17.3.5.21.9,0s.65-.47.49-.76-.52-.2-.91,0S124,71.15,124.14,71.45Z"/><path class="cls-3" d="M126.63,72.55l-.22-.34.32-.21.48.73L125.28,74l-.26-.4Z"/><path class="cls-3" d="M128.35,74.27c.38.49.15,1-.39,1.44s-1.12.49-1.5,0-.14-1,.4-1.44S128,73.78,128.35,74.27Zm-1.58,1.2c.21.27.53.14.9-.14s.58-.55.37-.83-.54-.12-.89.15S126.57,75.2,126.77,75.47Z"/><path class="cls-3" d="M129.4,76.22l-.27-.31.29-.25.58.65-1.72,1.53-.32-.35Z"/><path class="cls-3" d="M130.69,77.6l-.29-.29.28-.27.62.61-1.63,1.64-.34-.33Z"/><path class="cls-3" d="M132.07,78.89l-.3-.26.25-.29.67.57-1.52,1.74-.35-.31Z"/><path class="cls-3" d="M134.2,80.06c.5.37.43,1,0,1.49s-.93.79-1.43.42-.43-.94,0-1.49S133.7,79.69,134.2,80.06ZM133,81.66c.27.2.54,0,.82-.39s.4-.69.12-.9-.56,0-.82.39S132.75,81.46,133,81.66Z"/><path class="cls-3" d="M135.75,81.62l-.34-.21.21-.33.74.46-1.2,2-.41-.25Z"/><path class="cls-3" d="M138.05,82.44c.54.29.55.88.23,1.47s-.81.91-1.35.62-.56-.88-.24-1.47S137.5,82.15,138.05,82.44Zm-.94,1.75c.3.16.54-.09.76-.5s.3-.75,0-.91-.54.11-.75.5S136.81,84,137.11,84.19Z"/><path class="cls-3" d="M140.57,83.56c.59.29.63.91.32,1.55s-.81,1-1.4.72-.63-.9-.32-1.55S140,83.28,140.57,83.56Zm-.91,1.9c.33.15.57-.12.78-.57s.28-.8-.05-1-.57.14-.77.56S139.34,85.3,139.66,85.46Z"/><path class="cls-3" d="M142.47,84.91l-.39-.16.16-.38.85.36-1,2.25-.46-.2Z"/><path class="cls-3" d="M145,85.43c.62.22.72.83.48,1.51s-.71,1.08-1.33.85-.72-.83-.48-1.5S144.39,85.21,145,85.43Zm-.71,2c.34.12.55-.18.71-.64s.2-.83-.14-1-.56.2-.71.64S144,87.28,144.3,87.41Z"/><path class="cls-3" d="M147.7,86.3c.63.18.77.79.57,1.47s-.63,1.13-1.26,1-.77-.79-.58-1.47S147.07,86.12,147.7,86.3Zm-.58,2c.35.1.54-.21.67-.68s.14-.84-.21-.94-.54.24-.66.69S146.77,88.22,147.12,88.32Z"/><path class="cls-3" d="M150.44,87c.64.14.83.73.68,1.43s-.56,1.17-1.21,1-.82-.72-.67-1.43S149.8,86.85,150.44,87ZM150,89c.36.08.52-.25.62-.73s.09-.85-.27-.92-.52.27-.62.73S149.65,89,150,89Z"/><path class="cls-3" d="M153.23,87.48c.65.1.87.68.77,1.39s-.48,1.2-1.13,1.1-.87-.67-.77-1.38S152.58,87.39,153.23,87.48Zm-.3,2.08c.36.06.5-.28.57-.77s0-.85-.33-.9-.5.31-.57.77S152.57,89.51,152.93,89.56Z"/><path class="cls-3" d="M155.46,88.21l-.43,0,.05-.41.92.1-.26,2.43-.5-.05Z"/><path class="cls-3" d="M158,88c.66.06.91.62.85,1.34s-.4,1.22-1.06,1.17-.91-.62-.85-1.33S157.33,88,158,88Zm-.18,2.1c.37,0,.49-.31.53-.81s0-.85-.38-.88-.49.34-.53.81S157.44,90.07,157.8,90.1Z"/><path class="cls-3" d="M160.92,88.11c.68.06,1,.66.89,1.41s-.43,1.29-1.13,1.23-1-.65-.88-1.41S160.23,88.05,160.92,88.11Zm-.2,2.21c.38,0,.52-.33.56-.85s0-.89-.4-.93-.51.36-.56.85S160.34,90.29,160.72,90.32Z"/><path class="cls-3" d="M163.34,88.82l-.44,0,0-.43,1,.11-.3,2.56L163.1,91Z"/><path class="cls-3" d="M165.5,89.11l-.45-.07.07-.43,1,.15-.4,2.55-.52-.08Z"/><path class="cls-3" d="M168.33,89.14c.68.15.87.77.72,1.51s-.59,1.23-1.27,1.09-.87-.77-.71-1.51S167.65,89,168.33,89.14Zm-.46,2.17c.37.08.55-.26.66-.77s.09-.89-.29-1-.55.29-.65.77S167.49,91.23,167.87,91.31Z"/><path class="cls-3" d="M170.75,90.11l-.46-.13.13-.44,1,.28-.74,2.61-.54-.15Z"/><path class="cls-3" d="M173.72,90.53c.69.24.8.92.54,1.67s-.79,1.21-1.48,1-.8-.92-.53-1.67S173,90.29,173.72,90.53Zm-.78,2.2c.38.14.61-.2.79-.71s.22-.92-.16-1.06-.62.23-.79.72S172.56,92.59,172.94,92.73Z"/><path class="cls-3" d="M176,92l-.43-.19.18-.42,1,.41-1.07,2.49-.52-.22Z"/><path class="cls-3" d="M178.93,92.75c.65.33.69,1,.33,1.73s-.91,1.1-1.57.77-.68-1-.33-1.72S178.28,92.43,178.93,92.75Zm-1,2.09c.36.18.63-.12.87-.61s.33-.89,0-1.07-.64.15-.87.62S177.53,94.67,177.89,94.84Z"/><path class="cls-3" d="M181.06,94.44l-.41-.24.23-.4.89.52-1.35,2.35-.49-.28Z"/><path class="cls-3" d="M184,95.57c.62.45.54,1.16.06,1.84s-1.15,1-1.77.54-.54-1.17,0-1.84S183.38,95.12,184,95.57Zm-1.43,2c.34.24.67,0,1-.49s.49-.86.14-1.11-.68.05-1,.49S182.23,97.31,182.57,97.56Z"/><path class="cls-3" d="M186,97.83l-.36-.34.33-.35.79.74L184.78,100l-.43-.4Z"/><path class="cls-3" d="M188.57,99.86c.47.6.2,1.27-.45,1.79s-1.37.64-1.85,0-.2-1.26.46-1.78S188.09,99.26,188.57,99.86Zm-1.92,1.52c.26.34.65.17,1.1-.19s.71-.7.44-1-.67-.14-1.1.2S186.39,101.05,186.65,101.38Z"/><path class="cls-3" d="M189.93,102.63l-.25-.46.44-.24.54,1L188,104.35l-.29-.54Z"/><path class="cls-3" d="M191.06,105.1l-.18-.49.48-.16.38,1.07-2.82,1-.2-.58Z"/><path class="cls-3" d="M192.45,108.37c.13.79-.47,1.26-1.33,1.39s-1.58-.13-1.7-.92.48-1.26,1.34-1.39S192.33,107.58,192.45,108.37Zm-2.53.39c.07.44.51.49,1.1.39s1-.27.94-.7-.54-.48-1.11-.39S189.85,108.32,189.92,108.76Z"/><path class="cls-3" d="M192.67,112.31c0,.8-.72,1.14-1.59,1.1s-1.52-.43-1.48-1.24.71-1.13,1.58-1.1S192.7,111.51,192.67,112.31Zm-2.57-.11c0,.44.4.57,1,.6s1-.07,1-.51-.43-.58-1-.6S190.12,111.75,190.1,112.2Z"/><path class="cls-3" d="M158,103.2c.49.25.5.77.23,1.3s-.71.81-1.2.56-.5-.77-.22-1.3S157.51,103,158,103.2Zm-.81,1.55c.27.14.48-.08.66-.44s.26-.66,0-.8-.48.1-.66.45S156.91,104.61,157.18,104.75Z"/><path class="cls-3" d="M160.13,104.38c.47.27.47.79.17,1.3s-.74.79-1.21.51-.47-.79-.17-1.3S159.66,104.11,160.13,104.38Zm-.87,1.51c.26.16.47-.06.68-.42s.28-.64,0-.79-.48.08-.68.42S159,105.74,159.26,105.89Z"/><path class="cls-3" d="M161.63,105.7l-.3-.18.18-.29.66.4-1.07,1.73-.36-.22Z"/><path class="cls-3" d="M163.07,106.61l-.3-.19.18-.29.65.42-1.11,1.71-.35-.23Z"/><path class="cls-3" d="M165.21,107.43c.48.33.42.88.06,1.4s-.85.77-1.33.43-.43-.87-.07-1.4S164.73,107.1,165.21,107.43ZM164.14,109c.27.19.52,0,.76-.38s.36-.67.1-.85-.52,0-.76.39S163.88,108.78,164.14,109Z"/><path class="cls-3" d="M167.32,108.94c.47.35.4.9,0,1.41s-.88.73-1.35.38-.4-.89,0-1.4S166.85,108.6,167.32,108.94Zm-1.12,1.5c.26.19.52,0,.78-.36s.38-.65.12-.84-.52,0-.77.36S166,110.25,166.2,110.44Z"/><path class="cls-3" d="M169.38,110.54c.46.37.37.91,0,1.41s-.91.7-1.36.33-.36-.9,0-1.4S168.93,110.18,169.38,110.54ZM168.22,112c.25.2.51,0,.78-.33s.41-.64.16-.84-.53,0-.79.33S168,111.8,168.22,112Z"/><path class="cls-3" d="M170.75,112.19l-.29-.25.24-.28.63.54-1.42,1.65-.34-.29Z"/><path class="cls-3" d="M172.11,113.39l-.28-.26.25-.27.61.56L171.23,115l-.33-.3Z"/><path class="cls-3" d="M174.07,114.68c.42.41.28.94-.17,1.4s-1,.61-1.39.2-.27-.93.17-1.39S173.66,114.28,174.07,114.68Zm-1.3,1.34c.23.23.51.06.81-.25s.47-.6.24-.82-.53,0-.82.25S172.54,115.8,172.77,116Z"/><path class="cls-3" d="M175.91,116.56c.4.42.23,1-.23,1.38s-1,.57-1.4.15-.23-1,.23-1.39S175.51,116.13,175.91,116.56Zm-1.36,1.28c.22.23.51.08.82-.22s.49-.58.27-.81-.52-.07-.82.22S174.33,117.6,174.55,117.84Z"/><path class="cls-3" d="M177.81,118.48c.4.47.2,1-.32,1.46s-1.08.55-1.49.08-.19-1,.32-1.46S177.41,118,177.81,118.48Zm-1.51,1.28c.22.27.53.12.89-.18s.55-.59.33-.85-.55-.09-.89.19S176.08,119.5,176.3,119.76Z"/><path class="cls-3" d="M178.9,120.49l-.24-.32.3-.23.54.69L177.68,122l-.29-.38Z"/><path class="cls-3" d="M180.71,122.24c.36.51.1,1-.45,1.42s-1.13.45-1.49-.06-.1-1,.45-1.42S180.36,121.73,180.71,122.24Zm-1.62,1.13c.19.28.52.17.9-.1s.6-.53.4-.81-.53-.15-.89.11S178.89,123.09,179.09,123.37Z"/><path class="cls-3" d="M181.62,124.36l-.22-.34.33-.2.47.74-2,1.22-.25-.4Z"/><path class="cls-3" d="M182.61,126.05l-.19-.35.34-.19.42.76-2,1.13-.23-.42Z"/><path class="cls-3" d="M183.53,127.76l-.18-.36.35-.17.39.78L182,129l-.21-.42Z"/><path class="cls-3" d="M185,129.87c.24.57-.12,1-.74,1.29s-1.2.21-1.45-.37.12-1,.74-1.29S184.73,129.3,185,129.87Zm-1.83.77c.14.32.48.27.9.09s.7-.4.57-.71-.5-.26-.9-.08S183,130.33,183.14,130.64Z"/><path class="cls-3" d="M185.4,132.17l-.13-.38.37-.12.28.83-2.2.72-.14-.45Z"/><path class="cls-3" d="M186.49,134.52c.14.6-.3,1-1,1.14s-1.22,0-1.36-.62.31-1,1-1.14S186.35,133.91,186.49,134.52Zm-1.94.43c.08.34.42.35.88.25s.76-.26.68-.6-.44-.34-.87-.24S184.48,134.62,184.55,135Z"/><path class="cls-3" d="M187.1,137.44c.07.66-.44,1-1.15,1.09s-1.28-.18-1.35-.83.45-1,1.16-1.08S187,136.79,187.1,137.44Zm-2.09.22c0,.36.4.41.89.37s.83-.18.79-.55-.42-.41-.88-.36S185,137.29,185,137.66Z"/><path class="cls-3" d="M186.79,139.94v-.42h.41v.93h-2.45v-.5Z"/><path class="cls-3" d="M187.09,142.67c-.06.66-.63.9-1.34.83s-1.22-.42-1.16-1.08.64-.9,1.35-.82S187.16,142,187.09,142.67Zm-2.09-.21c0,.36.31.49.8.54s.85,0,.88-.37-.33-.49-.79-.53S185,142.1,185,142.46Z"/><path class="cls-3" d="M186.62,145.7c-.14.65-.73.83-1.43.68s-1.17-.55-1-1.2.73-.82,1.43-.67S186.75,145.06,186.62,145.7Zm-2.06-.43c-.07.36.25.52.73.62s.85.08.93-.27-.28-.52-.74-.62S184.64,144.91,184.56,145.27Z"/><path class="cls-3" d="M185.85,148.65c-.19.63-.8.76-1.49.54s-1.11-.66-.91-1.29.8-.75,1.48-.54S186,148,185.85,148.65Zm-2-.62c-.11.34.2.54.67.68s.84.16,1-.18-.23-.55-.68-.69S184,147.68,183.84,148Z"/><path class="cls-3" d="M184.84,151.48c-.24.61-.86.69-1.52.43s-1.06-.75-.81-1.36.85-.69,1.52-.42S185.08,150.87,184.84,151.48Zm-2-.78c-.14.34.16.56.61.74s.82.23,1-.11-.18-.56-.62-.74S183,150.36,182.89,150.7Z"/><path class="cls-3" d="M183.47,153.52l.18-.39.37.18-.39.84-2.21-1.05.21-.45Z"/><path class="cls-3" d="M182.68,156.07c-.3.58-.92.6-1.56.26s-1-.86-.65-1.44.93-.59,1.56-.25S183,155.5,182.68,156.07Zm-1.85-1c-.17.32.1.57.53.81s.79.31,1,0-.12-.58-.53-.8S181,154.76,180.83,155.08Z"/><path class="cls-3" d="M181.31,158.77c-.35.59-1,.58-1.65.19s-1-1-.62-1.55,1-.58,1.66-.19S181.67,158.18,181.31,158.77Zm-1.9-1.14c-.19.33.07.6.52.87s.81.38,1,.05-.09-.62-.52-.87S179.61,157.3,179.41,157.63Z"/><path class="cls-3" d="M179.58,160.65l.25-.38.36.24-.54.82-2.16-1.41.3-.45Z"/><path class="cls-3" d="M178.38,162.44l.25-.37.36.25-.56.8-2.12-1.47.31-.43Z"/><path class="cls-3" d="M177.17,165c-.41.56-1.06.48-1.67,0s-.88-1-.47-1.6,1.06-.48,1.66,0S177.58,164.39,177.17,165Zm-1.79-1.31c-.23.31,0,.61.43.92s.78.44,1,.13,0-.62-.44-.91S175.61,163.33,175.38,163.64Z"/><path class="cls-4" d="M94.36,111.49c.13.23.13.36.23.57s.33.43.41.65-.06.56,0,.78a4.51,4.51,0,0,1,.17.71,2,2,0,0,1,0,.7,1.36,1.36,0,0,1-.31.61c-.15.19-.22.43-.44.57a3.73,3.73,0,0,1-.68.28c-.23.08-.47.15-.71.21s-.51,0-.75.08-.45.31-.67.37a3.88,3.88,0,0,0-.6.13l.54.34c.21.12.39.29.61.41s.48.14.69.26.44.22.66.33.35.4.57.51.49.12.71.22.43.24.65.33.48.14.7.24.44.24.66.32.45.24.68.31.49.09.72.16.51,0,.75,0,.44.24.68.29.5,0,.74,0,.46.21.7.24.49.11.73.13.49,0,.74,0,.48-.13.73-.14.49.09.74.07.49,0,.74,0,.47-.14.71-.19.51,0,.75-.06.4-.38.63-.45.5-.05.73-.14.51-.05.73-.15.45-.21.67-.33.3-.46.52-.58.56,0,.77-.14.28-.46.48-.6.42-.25.62-.39l.59-.44c.19-.15.34-.35.53-.51s.56-.27.74-.44c-.24,0-.59.15-.84.17l-.73,0-.74,0c-.25,0-.49.05-.74.06s-.49,0-.73,0-.49.06-.74.07-.49-.15-.74-.15-.49,0-.73,0-.5.2-.74.19-.49-.14-.73-.15L105,117c-.24,0-.47-.18-.71-.21s-.51.09-.75,0-.5,0-.74-.1-.42-.32-.66-.38-.54.12-.78,0-.4-.33-.63-.42-.47-.14-.7-.23-.52,0-.75-.14-.4-.29-.62-.41-.32-.42-.53-.55-.39-.27-.59-.41-.4-.27-.59-.43-.39-.28-.57-.44-.37-.31-.55-.48-.45-.24-.62-.42-.35-.34-.51-.53S94.52,111.68,94.36,111.49Z"/><path class="cls-4" d="M90.48,99c.25,0,.51.12.76.12s.5-.1.74-.09.5,0,.75,0,.48.17.73.2.47.17.71.21.52-.07.76,0,.5,0,.74.09.47.2.7.27.44.27.67.34.47.15.7.24.48.13.71.22.44.23.67.32.47.16.7.26.47.16.69.26.51.09.73.2.36.38.59.49.48.13.7.25.46.19.68.3.45.22.67.33.4.3.62.41.44.25.67.36.4.33.62.44.56,0,.79.12.42.29.64.4.42.3.64.41l.69.32c.22.11.43.26.66.37s.54,0,.77.15.4.33.63.44l.68.34.69.33c.22.11.44.24.67.35s.42.29.65.4.49.15.72.26.48.3.71.41a3.73,3.73,0,0,1,0-.75c0-.24-.2-.48-.18-.71s.19-.47.22-.7.17-.46.2-.69a6.25,6.25,0,0,0,0-.73c0-.25-.23-.46-.27-.69s0-.5-.1-.7a2.06,2.06,0,0,0-.46-.59,3.39,3.39,0,0,0-.66-.32c-.2-.08-.45-.09-.71-.16s-.5,0-.74-.12-.48-.09-.72-.16-.41-.37-.64-.44-.53,0-.77,0-.42-.32-.66-.39-.49-.09-.73-.16-.46-.18-.69-.25l-.71-.23c-.24-.07-.51,0-.75-.1s-.44-.25-.67-.32-.47-.17-.71-.24-.52,0-.76,0-.45-.22-.69-.29l-.72-.19c-.23-.06-.49-.06-.73-.12s-.51,0-.75-.06-.44-.29-.68-.35-.49-.06-.73-.11-.5,0-.74-.09l-.73-.16c-.24,0-.45-.25-.7-.29s-.48-.13-.72-.16-.5,0-.75,0a5.86,5.86,0,0,0-.72-.19,6.29,6.29,0,0,0-.71-.2,3.92,3.92,0,0,0-.7-.25c-.25,0-.49.12-.74.13s-.53-.2-.78-.14-.4.33-.64.43-.55,0-.77.14l.08.18c-.21.06-.46-.08-.66,0s-.41.2-.61.26c0,.13.22.21.3.32S90.39,99,90.48,99Z"/><path class="cls-4" d="M134.05,167.82a24.86,24.86,0,0,1-6.22,4.13,13.78,13.78,0,0,1-7.48,1.17,13.11,13.11,0,0,1-3.65-1.18,24.84,24.84,0,0,1-3.21-2c-2-1.46-4-3-5.89-4.55,2.15,1.24,4.24,2.58,6.31,3.9a17.5,17.5,0,0,0,6.59,2.82,14.34,14.34,0,0,0,7-.9A37.51,37.51,0,0,0,134.05,167.82Z"/><path class="cls-4" d="M148.33,176.2a.3.3,0,0,0,.39,0c.12-.2.23-.47.35-.68s.17-.45.29-.66.18-.44.29-.65.31-.38.42-.59.29-.39.4-.6.16-.42.27-.63l-.36.61c-.13.21-.33.38-.46.59s-.32.38-.45.59-.15.48-.28.69-.14.5-.28.7S148.46,176,148.33,176.2Z"/><path class="cls-4" d="M148.26,179.72l1.14-1.31q1-1.11,1.89-2.25h-.73C149.83,177.35,149.06,178.54,148.26,179.72Z"/><path class="cls-4" d="M160.28,178.6l.95-1.18a56.86,56.86,0,0,0,3.36-4.6c-1.05,1.21-2,2.23-2.48,2.82C161.52,176.63,160.91,177.62,160.28,178.6Z"/><path class="cls-4" d="M185.16,102.9a22.51,22.51,0,0,0-4.5-4.21c-5.55-3.88-11.56-5.45-17.65-6.43-4.67-.74-9.35-1.27-14-1.88a37.07,37.07,0,0,1-17.14-7.21C123.45,77,118.41,67.33,117,54c-.26-2.5-.46-5-.71-7.75a5.64,5.64,0,0,0-.23.63c-.45,3.28-1.06,6.54-1.33,9.85a79.09,79.09,0,0,0,3.07,29.18A75.5,75.5,0,0,0,130,110.1a31.41,31.41,0,0,1-5.68,2.22,8.94,8.94,0,0,1-4.39.23,29.22,29.22,0,0,1-5.49-1.9c-1.24-.56-2.47-1.15-3.75-1.59a39,39,0,0,0-12.42-1.83c-1,0-2.84.13-4.69.27-1.16.09-2.31.26-3.46.45-1.48.26-2.94.57-4.41.85-.26,0-.3.18-.24.41.32,1.4.65,2.79,1,4.19.11.5.23,1,.75,1.2a.66.66,0,0,1,.15.14A6.83,6.83,0,0,1,89,117.41c.75,1.84,1.49,3.7,2.32,5.5a16.88,16.88,0,0,0,4.36,5.85,12.76,12.76,0,0,0,10.88,2.89,13.55,13.55,0,0,0,6.38-3,14.86,14.86,0,0,0,4.19-5.81c.58-1.36,1.09-2.75,1.63-4.12a3.15,3.15,0,0,1,.73-1.11,3,3,0,0,1,4.1-.08,4.61,4.61,0,0,1,1.1,1.72c.32.82.6,1.66.92,2.48a16.87,16.87,0,0,0,3.39,5.71,13.5,13.5,0,0,0,12.09,4.27,12.3,12.3,0,0,0,2.51-.63,49.2,49.2,0,0,1-.41,31,122.75,122.75,0,0,1-4.39,11.61c-.18.27-.34.54-.52.82s-.15.28-.21.4c.06-.12.13-.26.21-.4q-1.51,2.31-3.24,4.54c-2.53,3.29-5.34,6.44-8,9.66-.29.35-.61.69-.86,1.06a2.24,2.24,0,0,0-.26.74l.25.14a12.14,12.14,0,0,0,1.25-1,78.88,78.88,0,0,0,11.24-13.57h0a37.4,37.4,0,0,0,3.6-6.71c1.77-4.6,3.74-10.15,5.48-15,.11-.31-5.28,16-7.86,21.74h0c-.29.65-.58,1.3-.88,2-1,2.11-2.7,4-4.17,6-.93,1.25-2,2.42-3,3.63l-.25.36.2.1c1.79-1.95,3.59-3.9,5.39-5.9.09.69.58.55,1.25.16a10.47,10.47,0,0,0-.61,1c-.17.39-.8.7-.36,1.23.06.08-.24.36-.37.54l-2,2.52.08.05a8.11,8.11,0,0,1,.84-.92,17.49,17.49,0,0,0,1.92-2.52c.76-.9,1.39-1.86,2.05-2.79s1.29-1.89,1.94-2.84a3.5,3.5,0,0,1,.72-.84,2.35,2.35,0,0,1-.19.43q-2.55,3.93-5.14,7.85c-.29.45-.83.79-1.1,1.24a7.28,7.28,0,0,0-.45,1.51l.34.13a9.92,9.92,0,0,0,1.33-1.25c1.44-1.89,2.81-3.82,4.2-5.74.17-.24.33-.49.5-.74.09,0,.19.07.28.12l-6.15,9.13.13.09c.29-.29.6-.57.86-.86A72,72,0,0,0,145.91,178c.35-.61.71-1.22,1.07-1.83,1.61-2.75,3.27-5.49,5.11-8.15.08-.1.15-.21.25-.36,0,.94-2.1,5.17-4.28,8.51h0l-.6.89c-2.07,3-4.27,5.86-6.36,8.81a101.09,101.09,0,0,0,7.29-9.7h0q1.23-1.86,2.35-3.76c-.66,1.26-1.35,2.52-2.07,3.76h0a76.82,76.82,0,0,1-7.76,11.07l.48-.47a50.34,50.34,0,0,0,8.18-10.6h0c1-1.65,1.91-3.33,2.81-5,.16-.3.46-.55.65-.84a9.2,9.2,0,0,0,1-1.77c.69-2.13,2.17-4.39,2.87-6.51a63.9,63.9,0,0,1-6.33,14.14h.73a54.12,54.12,0,0,0,4.19-6h0a61.46,61.46,0,0,0,4.09-8.15,62.19,62.19,0,0,1-4.09,8.16q-1.72,3.1-3.77,6h0l-.75,1.09c-2.15,3-4.47,5.83-6.7,8.74-.24.32-.51.62-.73,1a3.68,3.68,0,0,0-.26.68,1.21,1.21,0,0,0,.16.16,10.18,10.18,0,0,0,1-.84,77.76,77.76,0,0,0,8.44-10.79,76.74,76.74,0,0,0,4.34-7.61c1.2-2.43,2.59-5.57,3.52-7.72-2.17,5.14-4.37,10.26-6.69,15.33h0l-.18.38a36.83,36.83,0,0,1-3.57,5.43c-.79,1.14-1.69,2.2-2.53,3.3-.08.1-.15.21-.23.32a.69.69,0,0,1,.13.11l4.45-5.3c0,.65.35.54.86.2-.23.4-.41.62-.52.88s-.64.61-.39,1.15c0,.08-.2.33-.31.49l-1.65,2.3.06,0a6.08,6.08,0,0,1,.69-.83,16.37,16.37,0,0,0,1.62-2.3c.63-.8,1.18-1.67,1.74-2.53s1.12-1.72,1.67-2.58a3.64,3.64,0,0,1,.6-.77,2.4,2.4,0,0,1-.17.4c-1.49,2.4-3,4.81-4.47,7.18-.26.41-.67.71-.9,1.12a8,8,0,0,0-.49,1.4l.24.15a9.25,9.25,0,0,0,1.07-1.1c1.21-1.73,2.39-3.48,3.57-5.23.16-.23.29-.45.44-.69l.18.14c-1.76,2.78-3.54,5.56-5.31,8.34l.1.09c.22-.26.47-.51.69-.77a74.75,74.75,0,0,0,7.37-10.65l.38-.67h0c1.61-2.88,3.24-5.73,5-8.49.07-.09.13-.19.22-.33-.1,1-2.4,5.56-4.44,8.68l-.09.14h0c-1.75,2.65-3.58,5.24-5.34,7.88q3-3.81,5.59-7.88h0c.92-1.44,1.81-2.9,2.65-4.39-.76,1.49-1.56,2.95-2.38,4.39a78,78,0,0,1-6.14,9.17l.4-.42a49.8,49.8,0,0,0,6.39-8.75h0c1.07-1.79,2.06-3.64,3-5.5.14-.27.38-.49.55-.77a9.79,9.79,0,0,0,.89-1.62c.7-2,3.72-10.43,4.59-12.64.28-.69-3.95,13.17-8,20,.52-.59,1.43-1.61,2.48-2.82,1-1.53,1.92-3.1,2.78-4.71a31.9,31.9,0,0,1-2.58,4.85c1.49-1.72,3.06-3.94,4.4-5.65,2.56-3.25,9.27-13,11-17.28a24.85,24.85,0,0,0-.28-20.57,35.55,35.55,0,0,0-6.25-9.34,78.66,78.66,0,0,0-18.89-14.85c-3-1.76-6-3.81-9-5.73-.64-.42-.82-1.06-.37-2a8.11,8.11,0,0,0,1.22.66c3.61,1.25,7.24,2.46,10.85,3.71,4.47,1.54,9,2.92,13.38,4.71a27.12,27.12,0,0,1,9.55,6.58,12.23,12.23,0,0,1,3.23,8c.05,1.05.06,2.11.1,3.34a29.78,29.78,0,0,0,3.7-8.72C188.62,110.84,188,106.36,185.16,102.9Zm-68.08,15.9a13.76,13.76,0,0,1-4.67,8.75,11.88,11.88,0,0,1-6.62,3.09,11.7,11.7,0,0,1-11.1-4.53,19.92,19.92,0,0,1-3.38-6,11.33,11.33,0,0,1-.75-4.15,4.82,4.82,0,0,1,3.27-4.71,16.06,16.06,0,0,1,4.2-1c1.67-.16,10-.11,12.44.64a12.08,12.08,0,0,1,4.54,2.38A6,6,0,0,1,117.08,118.8Zm24.44,11.72c-.79.16-1.6.21-2.05.26a12.69,12.69,0,0,1-8.65-3.23,13.82,13.82,0,0,1-4.41-7.34,8,8,0,0,1-.06-4.16,6.32,6.32,0,0,1,2.47-3.3,11.48,11.48,0,0,1,2.2-1.26c.64.81,1.28,1.61,1.94,2.4.89,1.07,1.79,2.12,2.68,3.2a59.31,59.31,0,0,1-6.87-.22c3.44,3.1,6.78,4.33,10,4.4.67,1,1.32,2,1.92,3.13a42.8,42.8,0,0,1,2.52,5.63A13.79,13.79,0,0,1,141.52,130.52Zm5,39a2.08,2.08,0,0,1-.13,1.29c-.81,1.51-1.66,3-2.58,4.5l-.54.85h-.55Zm13.36.5c-.74,1.39-1.49,2.77-2.3,4.12-.4.68-.81,1.35-1.23,2-.78,1.28-1.58,2.56-2.37,3.84,0,0,0,0-.06-.05l2.1-3.79q2-3.69,4.09-7.37A2.93,2.93,0,0,1,159.85,170Zm3.21-18.42Zm-.48,1.81c.09-.32.18-.64.26-.95C162.76,152.77,162.67,153.09,162.58,153.41Zm.12-1.72c-.35,1.39-.72,2.76-1.14,4.13.41-1.37.79-2.74,1.14-4.13Zm-2.53,8.25a.42.42,0,0,1,0-.1.42.42,0,0,0,0,.1q-1,2.66-2.15,5.19Q159.19,162.6,160.17,159.94Zm1.26-3.73c-.17.55-.34,1.1-.53,1.65C161.09,157.31,161.26,156.76,161.43,156.21Z"/></g></svg>