<svg xmlns="http://www.w3.org/2000/svg" viewBox="0 0 576 236.93"><defs><style>.cls-1{fill:#231f20;}.cls-2{fill:#ec008c;}.cls-3{fill:#ea088b;}</style></defs><g id="Full"><path class="cls-1" d="M190.48,138.13H178.23l-3,8.53h-5.69l12.3-32.61h5l12.3,32.61h-5.68Zm-10.76-4.28H189l-4-11.56-.46-2.14h-.28l-.47,2.14Z"/><path class="cls-1" d="M219.93,125.18l-1.68-2.94-.28.1v24.32h-5.22V114.05h4.85l15.88,21.84,1.59,2.75.28-.09v-24.5h5.21v32.61h-4.84Z"/><path class="cls-1" d="M264.33,125.18l-1.68-2.94-.28.1v24.32h-5.21V114.05H262l15.88,21.84,1.59,2.75.28-.09v-24.5H285v32.61h-4.85Z"/><path class="cls-1" d="M301.74,114.05H307v32.61h-5.22Z"/><path class="cls-1" d="M363.85,114.05h5.22v28.23h13.74v4.38h-19Z"/><path class="cls-1" d="M402.62,129.14l.37,1.3h.28l.42-1.3,7.82-15.09h5.78l-11.55,21.1v11.51h-5.22v-11.6l-11.51-21h5.78Z"/><path class="cls-1" d="M442.59,118.42v28.24h-5.22V118.42H428.1v-4.37h23.48v4.37Z"/><path class="cls-1" d="M465.57,114.05h5.21v32.61h-5.21Z"/><path class="cls-1" d="M502.28,142.74a17.26,17.26,0,0,0,6.75-1.07l1.12,4.15a20.2,20.2,0,0,1-7.87,1.3c-9.32,0-16.4-7.22-16.4-16.77s7.08-16.77,16.4-16.77a19.35,19.35,0,0,1,7.87,1.35L509,119a19.51,19.51,0,0,0-6.75-1.07c-6.34,0-11.18,5.68-11.18,12.39C491.1,137.48,495.94,142.74,502.28,142.74Z"/><path class="cls-1" d="M523.76,140.88a22.87,22.87,0,0,0,8.34,1.68c3,0,5.91-1.45,5.91-4.85,0-2.61-1.67-4-6.33-5.5-4.94-1.67-9-4.42-9-9.27,0-6.33,5.21-9.36,10.85-9.36a22.79,22.79,0,0,1,9.13,2l-1.12,4.29a20.28,20.28,0,0,0-8-1.72c-2.84,0-5.45,1.53-5.45,4.61,0,2.33,1.82,3.86,6.24,5.4,5.17,1.87,9.09,4.43,9.09,9.32,0,6.66-5.5,9.64-11.32,9.64a25,25,0,0,1-9.41-2Z"/><path class="cls-2" d="M368.35,163h5.38c3.64,0,5.65,1.92,5.65,4.62s-2,4.62-5.65,4.62H371.3v5.08h-2.95Zm2.95,2.41v4.42h2.43c1.82,0,2.7-.88,2.7-2.21s-.88-2.21-2.7-2.21Z"/><path class="cls-2" d="M402.1,162.75a7.34,7.34,0,0,1,7.34,7.37,7.33,7.33,0,1,1-7.34-7.37Zm0,12.32c2.64,0,4.4-2.07,4.4-4.95s-1.72-5-4.4-5-4.38,2.21-4.38,5S399.44,175.07,402.1,175.07Z"/><path class="cls-2" d="M425.66,163H430c4.69,0,7.66,3.09,7.66,7.16s-3,7.16-7.66,7.16h-4.35Zm2.94,2.41v9.49H430a4.43,4.43,0,0,0,4.71-4.74,4.5,4.5,0,0,0-4.71-4.75Z"/><path class="cls-2" d="M460.63,175.07a7.17,7.17,0,0,0,2.89-.47l.57,2.31a8.84,8.84,0,0,1-3.46.57,7.37,7.37,0,1,1,0-14.73,8.5,8.5,0,0,1,3.46.6l-.57,2.29a8.53,8.53,0,0,0-2.89-.47,4.71,4.71,0,0,0-4.5,5C456.13,173,458.1,175.07,460.63,175.07Z"/><path class="cls-2" d="M487.89,174.11H482.8l-1.08,3.17h-3.11L483.93,163h2.84l5.32,14.32H489Zm-4.29-2.33h3.5l-1.35-4-.35-1.48h-.12l-.31,1.46Z"/><path class="cls-2" d="M507.83,174.25a10.52,10.52,0,0,0,3.5.65c1.13,0,2.19-.47,2.19-1.61,0-1-.65-1.43-2.56-2.13-2.23-.86-3.74-2.11-3.74-4.13,0-2.89,2.46-4.28,5.09-4.28a10,10,0,0,1,4,.88l-.57,2.38a9.75,9.75,0,0,0-3.44-.68c-1,0-2,.53-2,1.54s.71,1.45,2.47,2.1c2.34.9,3.83,2.15,3.83,4.12,0,3-2.58,4.39-5.3,4.39a10.64,10.64,0,0,1-4.05-.88Z"/><path class="cls-2" d="M538.82,165.37v11.91h-3V165.37h-4V163h10.79v2.41Z"/><path class="cls-2" d="M91.1,165a1.37,1.37,0,0,0-.18.16,3.75,3.75,0,0,1-.49.38l-.55.4-.56.39a.75.75,0,0,0-.17.14l.09,0,1.56-1c.09-.06.15-.16.24-.22a1.6,1.6,0,0,1,.31-.1l0,0a1.14,1.14,0,0,1-.24.25c-.37.29-.75.56-1.13.83l-.14.1a.13.13,0,0,0,0,.05l1.81-1.23,0,0-.17.16A14.84,14.84,0,0,1,89.25,167c-.67.4-1.34.81-2,1.26a.25.25,0,0,0-.08.05,8.09,8.09,0,0,0,1.89-1l1.74-1.26A21.84,21.84,0,0,1,88.16,168a17.84,17.84,0,0,0,3-2l-.09.09a13.09,13.09,0,0,1-3.09,2.18,1.92,1.92,0,0,0-.17.13,1.51,1.51,0,0,1-.35.2l-1.31.46c-.49.18-1,.39-1.46.58-.15.07-.33.08-.43.28a16.73,16.73,0,0,0,5.45-2.52l-.25.22a14.64,14.64,0,0,1-5,2.74,16,16,0,0,1-3.27.7,13.86,13.86,0,0,1-2.32.09,10.23,10.23,0,0,1-3.85-.9,13.43,13.43,0,0,1-3.12-1.9,4.13,4.13,0,0,1-.55-.62c-.06-.08-.15-.2-.06-.31s.21,0,.31,0l.13,0c-.12-.12-.21-.22-.31-.31a2.2,2.2,0,0,1-.51-.79c-.08-.22-.19-.43-.27-.65,0-.07-.11-.15,0-.24a.12.12,0,0,1,0-.05.91.91,0,0,1-.07-.14c-.07-.17,0-.24.16-.25a.76.76,0,0,1,.15,0c.09,0,.16,0,.15-.13a.2.2,0,0,1,.26-.17l-.28-.33a.49.49,0,0,1-.17-.36s0-.08,0-.12l-.08-.2c.14,0,.27,0,.27.17a.08.08,0,0,0,0,.06l.78.73a.23.23,0,0,0,.12.06l-.63-.67-.26-.28a.16.16,0,0,1,0-.23s.12,0,.17,0a3.27,3.27,0,0,1,.31.17c0-.09-.09-.16-.12-.24a.74.74,0,0,1,0-.21c.07,0,.15,0,.2,0a2.76,2.76,0,0,1,.57.36,8.44,8.44,0,0,1,1.18,1.21,7,7,0,0,0,.68.76c.32.31.65.6,1,.9a1,1,0,0,0,.26.2c.56.26,1.08.62,1.65.86a2.67,2.67,0,0,0,.64.09,3.69,3.69,0,0,1,.46.08l1.55.43h.15a12.18,12.18,0,0,0,2.88-.33l.58-.14.17,0v.05l-.59.17c-.2.05-.41.11-.62.15a5.86,5.86,0,0,1-.63.12l-.62.12c.41,0,.82-.06,1.22-.12a16.87,16.87,0,0,0,3.42-.89,15,15,0,0,0,3.77-2.12c.64-.5,1.26-1,1.88-1.56l.21-.17a.67.67,0,0,1,.15-.06s0,0,0,0a2,2,0,0,1-.18.23,15.9,15.9,0,0,1-4,3,16.16,16.16,0,0,1-3.07,1.2c-.07,0-.17,0-.17.15a9.48,9.48,0,0,0,1.07-.33c1.31-.58,2.63-1.16,3.92-1.79a6.74,6.74,0,0,0,1.18-.82c.25-.19.47-.39.71-.59l.07-.05,0,0-1.15,1c.15,0,.13.09.06.21l.19-.12c.08,0,.13-.15.25-.09s.07,0,.11-.07l.49-.38h0m-1.18.88h0l-2.43,1.42a.48.48,0,0,0,.27,0l.9-.53c.43-.27.85-.56,1.27-.84m-15.47.49s0,0,0,0c-.36-.34-.72-.68-1.09-1a1.48,1.48,0,0,0-.21-.13l0,0a9.73,9.73,0,0,0,1.34,1.14m-2-1.33-.69-.75s0,0,0,0c.22.25.36.59.73.71m.32.47,0,0a2.2,2.2,0,0,0,.17.25l.76.62a.2.2,0,0,0,.08,0h0Z"/><path class="cls-2" d="M83.5,167.64a21,21,0,0,0,2.92-.9,13.43,13.43,0,0,1-2.92.9"/><path class="cls-2" d="M91.09,165l.48-.4s0,0,0,0l-.48.4h0"/><path class="cls-2" d="M91.57,164.6l.42-.38,0,0-.43.36h0"/><path class="cls-2" d="M69.91,165a1.67,1.67,0,0,0,.16-.12,2.64,2.64,0,0,1,.46-.27,5,5,0,0,1,.5-.29l.52-.28a.42.42,0,0,0,.15-.11l-.08,0-1.44.75c-.08,0-.14.12-.22.16a2,2,0,0,1-.29.08l0,0a1.32,1.32,0,0,1,.22-.18l1-.6L71,164l0,0-1.67.89,0,0,.15-.11a14.72,14.72,0,0,1,2.12-1.24c.63-.29,1.25-.59,1.84-.91l.07,0a8.43,8.43,0,0,0-1.75.75l-1.61.91a20.23,20.23,0,0,1,2.46-1.38,16.32,16.32,0,0,0-2.72,1.43l.08-.07a12.45,12.45,0,0,1,2.85-1.58l.15-.09a1.4,1.4,0,0,1,.33-.15l1.22-.35c.46-.13.91-.28,1.36-.43.14-.05.31-.06.39-.2a17.9,17.9,0,0,0-5.05,1.86l.23-.16a15.38,15.38,0,0,1,4.65-2,19.19,19.19,0,0,1,3.06-.54,17.59,17.59,0,0,1,2.18-.11A13,13,0,0,1,85,161a14.16,14.16,0,0,1,3,1.28,3.24,3.24,0,0,1,.54.42c.06.06.14.14.06.22s-.19,0-.29,0l-.12,0,.3.2a1.73,1.73,0,0,1,.5.55c.08.15.18.3.26.45s.12.1,0,.16,0,0,0,0l.06.1c.07.12,0,.17-.14.18H89c-.09,0-.15,0-.15.1s-.11.14-.23.12l.27.22a.35.35,0,0,1,.17.25.36.36,0,0,1,0,.09l.09.14c-.14,0-.26,0-.27-.12l0,0-.76-.5a.18.18,0,0,0-.11,0l.61.45.25.2c.07,0,0,.11,0,.16a.23.23,0,0,1-.16,0l-.3-.12c0,.07.09.12.12.18a.59.59,0,0,1,0,.14.6.6,0,0,1-.19,0,3,3,0,0,1-.55-.24,8.08,8.08,0,0,1-1.14-.82,4.88,4.88,0,0,0-.66-.52c-.3-.21-.62-.41-.93-.61a1.23,1.23,0,0,0-.25-.14c-.54-.17-1-.41-1.57-.57a3.86,3.86,0,0,0-.61,0,3.15,3.15,0,0,1-.43-.05l-1.47-.27h-.14a15.18,15.18,0,0,0-2.7.29l-.54.11-.16,0,0,0,.55-.13.58-.12.59-.1c.2,0,.4,0,.59-.09-.38,0-.77.05-1.15.11a19.87,19.87,0,0,0-3.19.68,15.55,15.55,0,0,0-3.49,1.55c-.6.36-1.16.75-1.74,1.13l-.19.12-.14,0,0,0a1.29,1.29,0,0,1,.16-.17,15,15,0,0,1,3.67-2.14,17.11,17.11,0,0,1,2.87-.9c.06,0,.16,0,.16-.11a9.74,9.74,0,0,0-1,.25c-1.23.43-2.45.86-3.65,1.32a7.2,7.2,0,0,0-1.09.6c-.22.13-.43.29-.65.43l-.06,0,0,0,1-.74c-.14,0-.12-.06-.06-.15l-.17.09c-.08,0-.12.11-.24.07s-.06,0-.1,0l-.45.28h0m1.09-.64h0l2.25-1a.72.72,0,0,0-.26,0l-.83.39-1.17.61m14.53-.62,0,0,1,.68a1.21,1.21,0,0,0,.2.09l0,0a8.3,8.3,0,0,0-1.29-.77m2,.89.66.51,0,0c-.22-.17-.36-.4-.7-.48m-.32-.33h0a1.25,1.25,0,0,0-.16-.17l-.73-.42s0,0-.07,0h0l1,.62"/><path class="cls-2" d="M77,163a24,24,0,0,0-2.72.68A15.68,15.68,0,0,1,77,163"/><path class="cls-2" d="M69.92,165l-.44.29h0l.45-.29h0"/><path class="cls-2" d="M69.47,165.27l-.37.27,0,0,.39-.25h0"/><path class="cls-3" d="M78,25.5c0,.72-.58,1.06-1.36,1.07s-1.38-.31-1.39-1,.58-1.05,1.36-1.06S78,24.78,78,25.5Zm-2.3,0c0,.4.39.49.93.49s.93-.11.92-.51-.42-.5-.93-.49S75.72,25.13,75.73,25.53Z"/><path class="cls-3" d="M78.15,28.62c0,.72-.52,1.09-1.31,1.14s-1.39-.24-1.44-1,.53-1.08,1.31-1.13S78.11,27.9,78.15,28.62Zm-2.3.15c0,.39.42.47,1,.44s.92-.16.89-.56-.44-.47-1-.44S75.83,28.37,75.85,28.77Z"/><path class="cls-3" d="M77.87,31.19l-.05-.46.45,0,.1,1L75.7,32l0-.55Z"/><path class="cls-3" d="M78.11,33.39l-.06-.47.45-.05.13,1L76,34.22l-.07-.55Z"/><path class="cls-3" d="M79.18,36.13c.13.76-.44,1.21-1.26,1.35s-1.51-.11-1.63-.87.44-1.2,1.26-1.34S79.06,35.38,79.18,36.13Zm-2.42.4c.07.42.49.46,1.06.37s1-.27.89-.69-.52-.45-1.06-.36S76.69,36.11,76.76,36.53Z"/><path class="cls-3" d="M79.8,39.43c.16.75-.39,1.22-1.21,1.4s-1.5,0-1.66-.8.38-1.22,1.2-1.39S79.64,38.68,79.8,39.43Zm-2.4.5c.08.42.51.44,1.07.32s1-.31.86-.72-.54-.43-1.08-.32S77.31,39.52,77.4,39.93Z"/><path class="cls-3" d="M80.57,42.67c.19.75-.33,1.25-1.14,1.46s-1.51,0-1.71-.71.33-1.24,1.14-1.46S80.37,41.93,80.57,42.67Zm-2.38.63c.11.41.53.41,1.09.26s.93-.35.82-.76-.56-.41-1.09-.27S78.08,42.89,78.19,43.3Z"/><path class="cls-3" d="M80.79,45.41l-.14-.47.46-.14.32,1-2.73.84-.18-.56Z"/><path class="cls-3" d="M81.52,47.64l-.17-.47.46-.16.36,1-2.7.94-.19-.55Z"/><path class="cls-3" d="M83.05,50.25c.29.72-.16,1.28-.94,1.6s-1.49.22-1.78-.5.17-1.27.94-1.58S82.77,49.54,83.05,50.25Zm-2.27.92c.15.4.58.35,1.11.13s.88-.47.72-.87-.61-.32-1.12-.12S80.62,50.78,80.78,51.17Z"/><path class="cls-3" d="M84.4,53.31c.33.69-.09,1.29-.85,1.65s-1.47.31-1.81-.38.09-1.29.85-1.65S84.07,52.62,84.4,53.31Zm-2.22,1.06c.18.38.6.3,1.12.06s.85-.53.66-.91-.62-.29-1.12-.06S82,54,82.18,54.37Z"/><path class="cls-3" d="M86.12,56.25c.4.71,0,1.37-.77,1.8s-1.54.44-1.95-.27,0-1.36.78-1.8S85.72,55.54,86.12,56.25Zm-2.27,1.28c.22.39.66.28,1.19,0s.86-.62.64-1-.69-.26-1.19,0S83.63,57.14,83.85,57.53Z"/><path class="cls-3" d="M87.13,59l-.29-.44.43-.28.63,1-2.54,1.66L85,60.36Z"/><path class="cls-3" d="M89.4,61.24c.49.65.19,1.36-.52,1.89s-1.47.65-2,0-.18-1.35.53-1.89S88.91,60.59,89.4,61.24Zm-2.08,1.58c.27.36.69.19,1.18-.18s.77-.73.49-1.09-.71-.17-1.18.19S87.05,62.46,87.32,62.82Z"/><path class="cls-3" d="M90.77,63.8l-.35-.4.38-.33.77.86-2.27,2-.42-.47Z"/><path class="cls-3" d="M92.47,65.62l-.38-.38.36-.36.82.81-2.14,2.16-.44-.45Z"/><path class="cls-3" d="M94.29,67.32l-.4-.34.34-.39.87.76-2,2.29-.47-.41Z"/><path class="cls-3" d="M97.09,68.86c.66.48.56,1.25,0,2s-1.22,1-1.88.56-.56-1.25,0-2S96.43,68.38,97.09,68.86ZM95.55,71c.36.27.72,0,1.08-.51s.52-.91.16-1.18-.73,0-1.08.51S95.19,70.7,95.55,71Z"/><path class="cls-3" d="M99.14,70.91l-.45-.28L99,70.2l1,.6-1.59,2.59-.53-.33Z"/><path class="cls-3" d="M102.15,72c.72.38.74,1.15.32,1.94s-1.07,1.19-1.79.81-.73-1.16-.31-1.94S101.44,71.6,102.15,72Zm-1.23,2.3c.4.21.71-.12,1-.66s.39-1,0-1.19-.72.14-1,.66S100.52,74.07,100.92,74.29Z"/><path class="cls-3" d="M105.47,73.47c.78.37.83,1.19.43,2s-1.07,1.32-1.85,1-.83-1.19-.43-2S104.69,73.1,105.47,73.47ZM104.28,76c.43.21.74-.16,1-.74s.37-1.06-.06-1.26-.75.19-1,.74S103.85,75.75,104.28,76Z"/><path class="cls-3" d="M108,75.24l-.52-.22.21-.5,1.13.48-1.25,3-.61-.26Z"/><path class="cls-3" d="M111.31,75.92c.82.3,1,1.1.63,2S111,79.33,110.19,79s-.94-1.09-.62-2S110.5,75.63,111.31,75.92Zm-.94,2.6c.45.17.73-.23.95-.84s.26-1.09-.19-1.25-.73.27-.94.84S109.92,78.36,110.37,78.52Z"/><path class="cls-3" d="M114.85,77.07c.83.24,1,1,.76,1.94s-.84,1.48-1.67,1.24-1-1-.75-1.94S114,76.83,114.85,77.07Zm-.76,2.66c.46.13.71-.28.88-.9s.19-1.11-.27-1.24-.71.32-.88.91S113.63,79.6,114.09,79.73Z"/><path class="cls-3" d="M118.46,78c.84.18,1.08,1,.89,1.88s-.73,1.54-1.58,1.36-1.09-1-.89-1.89S117.61,77.79,118.46,78Zm-.58,2.71c.47.09.69-.33.82-1s.11-1.11-.36-1.21-.68.36-.81,1S117.41,80.58,117.88,80.68Z"/><path class="cls-3" d="M122.13,78.63c.86.12,1.15.88,1,1.82s-.63,1.58-1.49,1.45-1.14-.89-1-1.82S121.28,78.5,122.13,78.63Zm-.4,2.73c.47.07.66-.37.76-1s0-1.12-.44-1.19-.66.41-.75,1S121.26,81.29,121.73,81.36Z"/><path class="cls-3" d="M125.06,79.59l-.56-.06.06-.54,1.21.13-.34,3.2-.66-.07Z"/><path class="cls-3" d="M128.38,79.31c.86.07,1.2.82,1.12,1.75s-.53,1.62-1.4,1.55-1.19-.82-1.11-1.76S127.52,79.24,128.38,79.31Zm-.23,2.76c.47,0,.64-.42.69-1.06s0-1.12-.51-1.16-.63.44-.68,1.06S127.67,82,128.15,82.07Z"/><path class="cls-3" d="M132.24,79.45c.91.08,1.26.87,1.18,1.86s-.57,1.7-1.48,1.62-1.26-.87-1.17-1.86S131.33,79.37,132.24,79.45ZM132,82.36c.5,0,.67-.43.73-1.12s0-1.17-.53-1.22-.67.47-.73,1.11S131.48,82.31,132,82.36Z"/><path class="cls-3" d="M135.43,80.39l-.58-.07.06-.57,1.28.15-.39,3.37-.69-.08Z"/><path class="cls-3" d="M138.27,80.76l-.59-.09.09-.56,1.27.19-.51,3.36-.69-.11Z"/><path class="cls-3" d="M142,80.81c.89.19,1.15,1,.94,2s-.78,1.63-1.67,1.43-1.14-1-.94-2S141.11,80.62,142,80.81Zm-.61,2.85c.49.11.72-.34.86-1s.12-1.18-.37-1.28-.73.38-.86,1S140.89,83.56,141.39,83.66Z"/><path class="cls-3" d="M145.18,82.08l-.6-.17.16-.58,1.31.37-1,3.44-.71-.2Z"/><path class="cls-3" d="M149.09,82.63c.9.32,1,1.22.7,2.21s-1,1.58-1.93,1.26-1.06-1.22-.71-2.2S148.18,82.31,149.09,82.63Zm-1,2.9c.5.18.8-.26,1-.94s.29-1.21-.22-1.39-.81.3-1,.94S147.56,85.35,148.06,85.53Z"/><path class="cls-3" d="M152.14,84.53l-.57-.25.24-.55,1.25.53-1.41,3.29-.68-.29Z"/><path class="cls-3" d="M155.94,85.56c.86.43.91,1.33.44,2.27s-1.21,1.45-2.07,1-.9-1.33-.44-2.27S155.08,85.13,155.94,85.56Zm-1.36,2.75c.47.24.83-.17,1.14-.81s.43-1.17-.05-1.4-.83.2-1.14.81S154.1,88.07,154.58,88.31Z"/><path class="cls-3" d="M158.75,87.77l-.54-.31.3-.52,1.17.68-1.78,3.09-.64-.37Z"/><path class="cls-3" d="M162.62,89.26c.82.59.71,1.54.07,2.43s-1.51,1.29-2.33.7-.7-1.53-.06-2.42S161.8,88.67,162.62,89.26Zm-1.89,2.62c.45.32.89,0,1.33-.64s.64-1.14.19-1.46-.9.06-1.32.64S160.28,91.55,160.73,91.88Z"/><path class="cls-3" d="M165.19,92.24l-.47-.45.43-.46,1,1L163.63,95l-.56-.52Z"/><path class="cls-3" d="M168.62,94.91c.63.79.27,1.67-.59,2.35s-1.8.84-2.43,0-.26-1.67.6-2.35S168,94.12,168.62,94.91Zm-2.52,2c.34.43.86.21,1.45-.26s.93-.92.58-1.36-.89-.18-1.45.26S165.75,96.48,166.1,96.92Z"/><path class="cls-3" d="M170.41,98.55l-.32-.6.58-.32.71,1.32-3.45,1.87-.39-.71Z"/><path class="cls-3" d="M171.9,101.81l-.23-.65.62-.22.5,1.41-3.7,1.31-.27-.76Z"/><path class="cls-3" d="M173.74,106.1c.16,1.05-.63,1.66-1.76,1.84s-2.07-.17-2.23-1.22.62-1.65,1.76-1.83S173.58,105.06,173.74,106.1Zm-3.34.52c.09.58.67.64,1.45.52s1.32-.36,1.23-.94-.71-.62-1.45-.51S170.31,106,170.4,106.62Z"/><path class="cls-3" d="M174,111.29c0,1-.93,1.5-2.08,1.45s-2-.57-2-1.63.93-1.5,2.08-1.45S174.06,110.23,174,111.29Zm-3.37-.15c0,.58.53.76,1.32.8s1.37-.1,1.39-.68-.57-.76-1.32-.79S170.66,110.56,170.64,111.14Z"/><path class="cls-3" d="M128.39,99.3c.64.34.66,1,.3,1.71s-.93,1.07-1.57.74-.66-1-.29-1.71S127.75,99,128.39,99.3Zm-1.06,2c.35.18.62-.11.87-.59s.34-.87,0-1.05-.63.13-.87.59S127,101.17,127.33,101.35Z"/><path class="cls-3" d="M131.21,100.85c.62.36.61,1,.22,1.72s-1,1-1.6.67-.61-1-.22-1.72S130.58,100.5,131.21,100.85Zm-1.15,2c.34.2.63-.09.9-.55s.37-.86,0-1-.63.11-.89.55S129.71,102.65,130.06,102.85Z"/><path class="cls-3" d="M133.18,102.6l-.39-.25L133,102l.87.53-1.41,2.28-.46-.29Z"/><path class="cls-3" d="M135.07,103.79l-.39-.25.24-.38.86.55L134.32,106l-.46-.3Z"/><path class="cls-3" d="M137.89,104.87c.63.43.56,1.15.08,1.84s-1.12,1-1.76.57-.56-1.15-.08-1.84S137.26,104.43,137.89,104.87Zm-1.4,2c.35.24.67,0,1-.51s.47-.88.12-1.12-.69.06-1,.51S136.14,106.64,136.49,106.89Z"/><path class="cls-3" d="M140.67,106.86c.61.46.52,1.18,0,1.85s-1.16,1-1.78.51-.52-1.18,0-1.85S140.05,106.4,140.67,106.86Zm-1.47,2c.34.25.67,0,1-.47s.5-.86.16-1.11-.69,0-1,.47S138.86,108.58,139.2,108.83Z"/><path class="cls-3" d="M143.38,109c.6.48.48,1.2,0,1.85s-1.19.93-1.79.44-.48-1.19,0-1.84S142.79,108.48,143.38,109Zm-1.53,1.92c.33.26.67,0,1-.44s.53-.84.2-1.1-.69,0-1,.44S141.52,110.61,141.85,110.88Z"/><path class="cls-3" d="M145.18,111.13l-.38-.33.32-.36.82.71-1.86,2.16-.45-.38Z"/><path class="cls-3" d="M147,112.71l-.37-.34.33-.35.8.73-1.92,2.11-.43-.39Z"/><path class="cls-3" d="M149.55,114.41c.55.54.37,1.24-.22,1.84s-1.28.81-1.83.27-.36-1.24.22-1.83S149,113.88,149.55,114.41Zm-1.71,1.76c.3.3.67.08,1.07-.33s.61-.79.31-1.08-.69-.06-1.07.34S147.53,115.88,147.84,116.17Z"/><path class="cls-3" d="M152,116.88c.52.56.31,1.25-.3,1.82s-1.31.75-1.84.19-.31-1.25.3-1.82S151.44,116.32,152,116.88Zm-1.79,1.68c.29.31.66.11,1.08-.29s.65-.75.36-1.06-.69-.09-1.08.29S149.89,118.25,150.18,118.56Z"/><path class="cls-3" d="M154.47,119.41c.53.62.26,1.34-.42,1.92s-1.43.72-2,.1-.26-1.34.42-1.92S153.94,118.79,154.47,119.41Zm-2,1.69c.29.34.7.15,1.17-.25s.72-.77.43-1.11-.72-.13-1.16.25S152.19,120.75,152.48,121.1Z"/><path class="cls-3" d="M155.91,122.05l-.33-.41.41-.32.7.91-2.4,1.86-.38-.49Z"/><path class="cls-3" d="M158.29,124.35c.46.67.13,1.37-.6,1.87s-1.49.59-2-.08-.13-1.36.6-1.87S157.82,123.69,158.29,124.35Zm-2.14,1.5c.26.37.68.21,1.18-.14s.8-.69.54-1.06-.71-.2-1.18.13S155.89,125.48,156.15,125.85Z"/><path class="cls-3" d="M159.48,127.15l-.28-.45.43-.27.61,1-2.58,1.6-.33-.53Z"/><path class="cls-3" d="M160.79,129.36l-.26-.46.45-.25.56,1-2.65,1.48-.3-.55Z"/><path class="cls-3" d="M162,131.62l-.23-.47.46-.23.51,1L160,133.3l-.28-.55Z"/><path class="cls-3" d="M163.89,134.39c.32.75-.16,1.36-1,1.71s-1.59.26-1.91-.49.16-1.36,1-1.7S163.57,133.64,163.89,134.39Zm-2.41,1c.18.41.63.35,1.19.11s.92-.52.75-.93-.66-.34-1.19-.11S161.31,135,161.48,135.41Z"/><path class="cls-3" d="M164.45,137.42l-.16-.5.49-.16.36,1.09-2.89,1-.2-.59Z"/><path class="cls-3" d="M165.89,140.51c.18.79-.4,1.31-1.26,1.5s-1.61,0-1.79-.82.4-1.3,1.27-1.5S165.71,139.71,165.89,140.51Zm-2.55.57c.1.44.55.46,1.15.32s1-.34.9-.78-.58-.45-1.15-.32S163.24,140.64,163.34,141.08Z"/><path class="cls-3" d="M166.7,144.36c.08.86-.58,1.33-1.52,1.42s-1.68-.23-1.77-1.09.58-1.32,1.52-1.42S166.61,143.5,166.7,144.36Zm-2.75.28c0,.47.52.55,1.16.48s1.1-.23,1-.71-.56-.54-1.17-.48S163.9,144.16,164,144.64Z"/><path class="cls-3" d="M166.28,147.65v-.56h.54v1.22H163.6v-.66Z"/><path class="cls-3" d="M166.68,151.24c-.08.86-.83,1.18-1.77,1.09s-1.6-.56-1.52-1.42.84-1.18,1.78-1.09S166.77,150.38,166.68,151.24Zm-2.75-.28c-.05.48.4.65,1,.71s1.12,0,1.16-.49-.43-.64-1-.7S164,150.49,163.93,151Z"/><path class="cls-3" d="M166.06,155.23c-.18.84-1,1.09-1.88.89s-1.54-.73-1.36-1.58,1-1.08,1.88-.89S166.24,154.38,166.06,155.23Zm-2.71-.57c-.1.46.33.68,1,.81s1.11.11,1.21-.36-.36-.68-1-.81S163.45,154.19,163.35,154.66Z"/><path class="cls-3" d="M165.05,159.1c-.26.83-1.06,1-2,.72s-1.46-.87-1.2-1.7,1.05-1,2-.71S165.3,158.28,165.05,159.1Zm-2.64-.82c-.15.46.26.71.88.91s1.1.21,1.24-.25-.3-.72-.89-.9S162.55,157.83,162.41,158.28Z"/><path class="cls-3" d="M163.72,162.83c-.32.8-1.13.91-2,.56s-1.39-1-1.06-1.79,1.13-.9,2-.55S164,162,163.72,162.83Zm-2.57-1c-.18.44.21.73.81,1s1.08.3,1.25-.14-.23-.74-.8-1S161.33,161.36,161.15,161.8Z"/><path class="cls-3" d="M161.92,165.5l.23-.5.49.23-.52,1.1L159.21,165l.29-.6Z"/><path class="cls-3" d="M160.88,168.87c-.4.76-1.22.78-2,.33s-1.27-1.12-.86-1.89,1.22-.77,2.05-.33S161.29,168.11,160.88,168.87Zm-2.43-1.3c-.23.42.12.75.69,1.05s1,.42,1.26,0-.15-.76-.69-1.05S158.67,167.15,158.45,167.57Z"/><path class="cls-3" d="M159.08,172.42c-.47.78-1.33.75-2.18.24s-1.28-1.25-.81-2,1.32-.75,2.18-.24S159.55,171.64,159.08,172.42Zm-2.5-1.5c-.26.43.09.79.68,1.14s1.07.5,1.33.06-.13-.81-.68-1.14S156.84,170.48,156.58,170.92Z"/><path class="cls-3" d="M156.8,174.89l.32-.5.48.32-.71,1.08-2.84-1.86.39-.59Z"/><path class="cls-3" d="M155.22,177.24l.33-.48.47.32-.73,1.06-2.79-1.93.4-.57Z"/><path class="cls-3" d="M153.62,180.55c-.53.73-1.39.63-2.19,0s-1.16-1.36-.62-2.1,1.39-.63,2.19,0S154.16,179.81,153.62,180.55Zm-2.35-1.72c-.3.4,0,.8.57,1.2s1,.59,1.32.18,0-.81-.57-1.2S151.57,178.42,151.27,178.83Z"/><path class="cls-1" d="M44.68,110.21c.17.31.16.48.3.76s.42.56.54.84-.09.75,0,1a4.75,4.75,0,0,1,.23.92,2.79,2.79,0,0,1,0,.93,1.79,1.79,0,0,1-.41.8c-.19.26-.29.57-.58.75a4.75,4.75,0,0,1-.89.37,9.31,9.31,0,0,1-.94.28c-.32.07-.66,0-1,.1s-.59.41-.89.49a4.57,4.57,0,0,0-.78.17c.28.17.42.28.7.44s.52.39.81.55.63.18.91.33.58.29.86.44.46.53.75.67.64.15.93.29.57.31.86.44.62.18.92.3.57.32.87.43.58.31.88.41.65.11,1,.2.67,0,1,.07.58.32.9.38.65,0,1,0,.61.28.93.32.63.15.95.17.65,0,1,0,.64-.17,1-.19.65.13,1,.1.65,0,1,0,.63-.18,1-.24.66,0,1-.08.52-.49.83-.59.65-.07,1-.19.67-.06,1-.19.58-.28.87-.43.4-.61.69-.77.73,0,1-.18.37-.61.64-.8.55-.32.81-.51.52-.37.78-.58.44-.46.69-.67.74-.36,1-.58c-.32,0-.78.2-1.11.23l-1,0-1,0-1,.08c-.32,0-.65,0-1,0s-.65.07-1,.08-.65-.2-1-.2-.64.06-1,.06-.66.26-1,.25-.64-.18-1-.2l-1-.08c-.32,0-.62-.23-.94-.27s-.67.12-1,.07-.64-.07-1-.13-.56-.43-.87-.51-.72.16-1,.07-.53-.44-.84-.55-.61-.18-.91-.31-.69,0-1-.18-.53-.39-.82-.54-.42-.55-.69-.72-.53-.36-.79-.54-.52-.37-.77-.57-.51-.37-.76-.59-.49-.4-.72-.62-.59-.31-.82-.55-.45-.46-.67-.7S44.88,110.47,44.68,110.21Z"/><path class="cls-1" d="M39.57,93.81c.33,0,.67.17,1,.16s.66-.12,1-.12l1,0c.32,0,.63.23.95.27s.63.22,1,.27.67-.08,1,0,.67,0,1,.12.61.26.92.35.57.35.88.45l.92.31c.31.12.63.18.94.3s.57.29.88.42.61.2.91.34.62.21.92.34.66.13.95.27.48.49.78.64.64.18.93.32.6.26.89.41l.87.43c.29.15.54.39.83.54s.58.33.87.47.53.43.83.58.74,0,1,.16.55.38.85.53.54.39.84.54.61.27.9.42.57.34.87.49.71,0,1,.2.53.43.83.57l.89.45.91.43.88.46c.3.14.56.38.86.53s.65.19,1,.34.62.39.93.54a5.47,5.47,0,0,1-.08-1c0-.32-.25-.64-.23-.95s.25-.61.3-.91.21-.61.25-.92,0-.64.07-.94-.3-.62-.36-.91,0-.66-.13-.93a2.37,2.37,0,0,0-.6-.77,5,5,0,0,0-.87-.43,8.66,8.66,0,0,0-.93-.21c-.32-.09-.66-.07-1-.15s-.65-.13-1-.22-.53-.49-.84-.58-.7.06-1,0-.55-.42-.87-.51-.64-.12-1-.21-.61-.24-.92-.33l-.93-.3c-.31-.09-.67,0-1-.14s-.58-.32-.89-.42-.62-.23-.93-.32-.69,0-1,0-.6-.29-.91-.37l-.94-.26c-.32-.08-.66-.07-1-.15s-.67,0-1-.08-.57-.39-.89-.46-.65-.08-1-.15-.65,0-1-.11-.63-.15-.95-.21-.6-.33-.92-.39-.64-.16-1-.21-.65,0-1,0-.66-.12-1-.24a6.52,6.52,0,0,0-.93-.27,5.75,5.75,0,0,0-.93-.33,6.86,6.86,0,0,0-1,.18c-.32,0-.69-.27-1-.19s-.53.44-.85.57-.71,0-1,.18l.11.24c-.27.07-.61-.11-.88,0s-.53.27-.8.33c.07.18.3.29.4.44S39.45,93.82,39.57,93.81Z"/><path class="cls-1" d="M96.89,184.32a32.2,32.2,0,0,1-8.19,5.44,18.06,18.06,0,0,1-9.83,1.54,17,17,0,0,1-4.8-1.56,30.66,30.66,0,0,1-4.23-2.59c-2.65-1.92-5.22-3.91-7.74-6,2.82,1.63,5.57,3.39,8.3,5.13S76,189.57,79.06,190a18.67,18.67,0,0,0,9.26-1.19A48.39,48.39,0,0,0,96.89,184.32Z"/><path class="cls-1" d="M115.68,195.35c.1.15.35.14.51.06.16-.27.3-.63.46-.9s.23-.59.38-.87.24-.59.39-.86.41-.49.56-.77.37-.51.52-.79.21-.55.35-.83c-.16.28-.31.52-.48.8s-.43.5-.6.78-.42.5-.59.77-.19.64-.37.92-.18.65-.36.92S115.86,195.08,115.68,195.35Z"/><path class="cls-1" d="M115.59,200l1.5-1.72c.87-1,1.69-2,2.49-3h-1Q117.17,197.66,115.59,200Z"/><path class="cls-1" d="M131.41,198.5l1.25-1.55a71.24,71.24,0,0,0,4.41-6c-1.38,1.59-2.57,2.94-3.25,3.71C133,195.92,132.23,197.22,131.41,198.5Z"/><path class="cls-1" d="M164.14,98.91a29.87,29.87,0,0,0-5.92-5.54C150.92,88.26,143,86.2,135,84.91c-6.14-1-12.3-1.66-18.45-2.47A48.68,48.68,0,0,1,94,72.94C83,64.83,76.32,52.11,74.45,34.55c-.35-3.28-.61-6.58-.94-10.18a5.21,5.21,0,0,0-.29.82c-.61,4.32-1.4,8.6-1.76,13a104,104,0,0,0,4,38.39,99.86,99.86,0,0,0,16,31.84,41.38,41.38,0,0,1-7.47,2.93,12,12,0,0,1-5.77.3,38.19,38.19,0,0,1-7.23-2.51c-1.63-.73-3.25-1.5-4.93-2.09-4.91-1.71-10-2.29-16.34-2.4-1.3.07-3.74.16-6.17.35-1.52.12-3,.34-4.56.6-1.94.33-3.87.75-5.8,1.12-.35.06-.39.23-.32.53.43,1.84.86,3.67,1.26,5.51.15.66.3,1.28,1,1.59a.75.75,0,0,1,.19.17A8.89,8.89,0,0,1,37.63,118c1,2.43,2,4.86,3,7.24a22.12,22.12,0,0,0,5.75,7.69,16.71,16.71,0,0,0,14.3,3.8,17.78,17.78,0,0,0,8.4-3.94,19.69,19.69,0,0,0,5.52-7.64c.76-1.79,1.43-3.62,2.15-5.43a4.08,4.08,0,0,1,.94-1.45,4,4,0,0,1,5.41-.11,6.07,6.07,0,0,1,1.44,2.26c.43,1.08.8,2.19,1.22,3.27a21.86,21.86,0,0,0,4.45,7.5,17.75,17.75,0,0,0,15.91,5.62,16.52,16.52,0,0,0,3.31-.82c4,11.87,4.32,26.06-.54,40.83a158.27,158.27,0,0,1-5.79,15.28c-.23.36-.45.72-.68,1.07s-.19.38-.28.54c.09-.16.18-.34.28-.54q-2,3-4.26,6c-3.33,4.32-7,8.47-10.56,12.7-.38.47-.81.9-1.14,1.4a3.38,3.38,0,0,0-.34,1l.33.18a14.75,14.75,0,0,0,1.64-1.25,103.53,103.53,0,0,0,14.79-17.87h0a48,48,0,0,0,4.73-8.82c2.33-6.05,4.93-13.36,7.22-19.77.15-.41-6.95,21-10.34,28.59h0c-.38.86-.77,1.72-1.16,2.57-1.27,2.78-3.55,5.27-5.48,7.85-1.23,1.63-2.65,3.18-4,4.78-.12.14-.22.3-.34.46l.26.14c2.37-2.57,4.72-5.14,7.11-7.76.1.91.75.72,1.63.2a11.88,11.88,0,0,0-.8,1.25c-.23.52-1.05.92-.48,1.63.09.09-.3.47-.48.7l-2.56,3.32.11.07a10.55,10.55,0,0,1,1.09-1.22c1.15-1,1.62-2.25,2.53-3.32s1.83-2.43,2.7-3.66,1.7-2.49,2.55-3.73a4.1,4.1,0,0,1,1-1.11,3.1,3.1,0,0,1-.25.56c-2.24,3.45-4.48,6.9-6.76,10.33-.39.59-1.1,1-1.44,1.63a9.25,9.25,0,0,0-.61,2l.45.18a13.82,13.82,0,0,0,1.76-1.64c1.88-2.5,3.69-5,5.52-7.56.23-.32.43-.65.66-1l.37.15q-4.07,6-8.09,12l.17.11c.38-.37.78-.74,1.13-1.13a94.31,94.31,0,0,0,11.42-15.41c.46-.81.93-1.61,1.4-2.42,2.12-3.62,4.3-7.21,6.73-10.71.1-.14.19-.29.33-.48,0,1.23-2.76,6.81-5.64,11.19h0c-.26.41-.52.8-.79,1.18-2.71,3.9-5.61,7.71-8.36,11.59a133,133,0,0,0,9.59-12.77h0c1.07-1.63,2.11-3.27,3.09-4.94-.87,1.66-1.77,3.31-2.72,4.94h0a100.27,100.27,0,0,1-10.21,14.57c.21-.2.43-.41.63-.62a66.69,66.69,0,0,0,10.77-14h0c1.3-2.16,2.51-4.37,3.69-6.59.21-.4.61-.73.85-1.11a11.57,11.57,0,0,0,1.31-2.33c.91-2.81,2.85-5.78,3.77-8.56a84.6,84.6,0,0,1-8.32,18.59h1a72.71,72.71,0,0,0,5.52-8h0a83.9,83.9,0,0,0,5.38-10.72,83.9,83.9,0,0,1-5.38,10.72q-2.3,4.09-5,8h0c-.33.48-.65,1-1,1.44-2.82,3.93-5.87,7.67-8.81,11.5-.33.43-.68.82-1,1.27a5.87,5.87,0,0,0-.34.89l.22.21a13.83,13.83,0,0,0,1.3-1.11,102.32,102.32,0,0,0,11.1-14.2,98.14,98.14,0,0,0,5.71-10c1.58-3.19,3.41-7.32,4.63-10.15-2.85,6.76-5.74,13.5-8.8,20.16h0c-.08.17-.16.34-.23.51a48.74,48.74,0,0,1-4.71,7.15c-1,1.5-2.22,2.89-3.32,4.33a4.5,4.5,0,0,0-.3.42,1.22,1.22,0,0,1,.17.15l5.85-7c0,.86.46.72,1.14.27-.31.52-.55.82-.7,1.16s-.84.81-.51,1.51c.06.11-.25.43-.4.65l-2.17,3a.19.19,0,0,0,.08.07,8.64,8.64,0,0,1,.9-1.1,22.17,22.17,0,0,0,2.13-3c.83-1,1.56-2.2,2.3-3.33s1.46-2.27,2.19-3.4a4.5,4.5,0,0,1,.8-1,4.27,4.27,0,0,1-.24.53c-2,3.15-3.9,6.32-5.87,9.45-.34.53-.89.92-1.19,1.46a11.54,11.54,0,0,0-.64,1.85c.11.06.21.14.31.2a12.94,12.94,0,0,0,1.42-1.45c1.58-2.28,3.14-4.59,4.69-6.89.2-.29.39-.59.58-.89l.24.17-7,11,.12.11c.3-.34.63-.66.92-1a97.85,97.85,0,0,0,9.7-14c.16-.3.33-.59.5-.89h0c2.11-3.78,4.26-7.54,6.63-11.16l.29-.44c-.13,1.29-3.16,7.32-5.85,11.42l-.12.18h0c-2.3,3.49-4.7,6.9-7,10.38,2.61-3.35,5.06-6.8,7.35-10.38h0c1.21-1.89,2.38-3.81,3.49-5.77q-1.5,2.94-3.14,5.77a103.88,103.88,0,0,1-8.06,12.07l.51-.55a65.57,65.57,0,0,0,8.42-11.52h0c1.4-2.35,2.71-4.78,4-7.22.18-.37.5-.66.72-1a12,12,0,0,0,1.17-2.13c.93-2.61,4.9-13.73,6.05-16.64.36-.9-5.2,17.33-10.55,26.33.68-.77,1.87-2.12,3.25-3.71,1.32-2,2.53-4.08,3.67-6.2a42.72,42.72,0,0,1-3.4,6.39c2-2.26,4-5.19,5.79-7.43,3.37-4.29,12.2-17.12,14.51-22.74a32.73,32.73,0,0,0-.37-27.07A46.76,46.76,0,0,0,149,121.56,103.29,103.29,0,0,0,124.19,102c-4-2.32-7.88-5-11.8-7.55-.84-.54-1.08-1.39-.49-2.67a10.67,10.67,0,0,0,1.61.88c4.75,1.65,9.52,3.23,14.28,4.87,5.88,2,11.8,3.84,17.6,6.21A35.59,35.59,0,0,1,158,112.42,16.14,16.14,0,0,1,162.2,123c.07,1.39.09,2.78.13,4.39a38.89,38.89,0,0,0,4.88-11.47C168.69,109.36,167.86,103.46,164.14,98.91ZM74.57,119.83a18.2,18.2,0,0,1-6.15,11.52,15.67,15.67,0,0,1-8.71,4.06,15.42,15.42,0,0,1-14.61-6,26.38,26.38,0,0,1-4.45-8,15,15,0,0,1-1-5.46,6.34,6.34,0,0,1,4.3-6.2,20.94,20.94,0,0,1,5.52-1.3c2.2-.21,13.2-.14,16.36.83a16,16,0,0,1,6,3.14A7.86,7.86,0,0,1,74.57,119.83Zm32.15,15.42c-1,.21-2.1.27-2.7.34a16.68,16.68,0,0,1-11.38-4.25,18.18,18.18,0,0,1-5.8-9.65,10.5,10.5,0,0,1-.07-5.48A8.28,8.28,0,0,1,90,111.87a15,15,0,0,1,2.9-1.67c.84,1.08,1.68,2.13,2.55,3.17,1.18,1.4,2.36,2.79,3.52,4.21a79.23,79.23,0,0,1-9-.29c4.53,4.08,8.93,5.7,13.22,5.79.88,1.3,1.73,2.66,2.52,4.12a53.88,53.88,0,0,1,3.32,7.4A17.07,17.07,0,0,1,106.72,135.25Zm6.54,51.31a2.91,2.91,0,0,1-.16,1.71c-1.08,2-2.19,4-3.4,5.9l-.71,1.12h-.73Q110.77,190.93,113.26,186.56Zm17.58.66c-1,1.83-2,3.65-3,5.42-.53.89-1.08,1.77-1.62,2.65l-3.13,5.06a.23.23,0,0,1-.07-.07l2.76-5q2.68-4.84,5.38-9.69A3.75,3.75,0,0,1,130.84,187.22ZM135.06,163Zm-.63,2.37c.12-.41.24-.83.35-1.25C134.67,164.53,134.55,165,134.43,165.36Zm.16-2.25q-.69,2.73-1.51,5.42.82-2.68,1.51-5.42ZM131.26,174l.05-.14-.05.14q-1.29,3.48-2.83,6.83Q130,177.45,131.26,174Zm1.66-4.91c-.23.73-.46,1.45-.7,2.17C132.46,170.5,132.69,169.78,132.92,169.05Z"/><path class="cls-1" d="M350.75,114v5.22H323.66V114Z"/><path class="cls-2" d="M350.75,126.89v5.22H323.66v-5.22Z"/><path class="cls-2" d="M350.75,141.53v5.21H323.66v-5.21Z"/></g></svg>